<svg width="16" height="16" viewBox="0 0 16 16" fill="none" xmlns="http://www.w3.org/2000/svg">
<path fill-rule="evenodd" clip-rule="evenodd" d="M4.4571 0.5C4.82804 0.5 5.12875 0.800704 5.12875 1.17164V2.06717H10.9496V1.17164C10.9496 0.800704 11.2503 0.5 11.6213 0.5C11.9922 0.5 12.2929 0.800704 12.2929 1.17164V2.06717H14.3078C14.8024 2.06717 15.2034 2.4681 15.2034 2.96269V14.6045C15.2034 15.0991 14.8024 15.5 14.3078 15.5H1.77052C1.27594 15.5 0.875 15.0991 0.875 14.6045V2.96269C0.875 2.4681 1.27594 2.06717 1.77052 2.06717H3.78546V1.17164C3.78546 0.800704 4.08617 0.5 4.4571 0.5ZM10.9496 3.41045V3.85821C10.9496 4.22915 11.2503 4.52985 11.6213 4.52985C11.9922 4.52985 12.2929 4.22915 12.2929 3.85821V3.41045H13.8601V4.97761H2.21828V3.41045H3.78546V3.85821C3.78546 4.22915 4.08617 4.52985 4.4571 4.52985C4.82804 4.52985 5.12875 4.22915 5.12875 3.85821V3.41045H10.9496ZM2.21828 6.32089V14.1567H13.8601V6.32089H2.21828Z" fill="black" fill-opacity="0.45"/>
</svg>
