<svg width="18" height="13" viewBox="0 0 18 13" fill="none" xmlns="http://www.w3.org/2000/svg">
<path d="M17.1407 5.68072C15.3468 1.90177 12.6351 0 9 0C5.36297 0 2.65318 1.90177 0.859272 5.68261C0.787318 5.83497 0.75 6.00138 0.75 6.16988C0.75 6.33838 0.787318 6.50479 0.859272 6.65715C2.65318 10.4361 5.36486 12.3379 9 12.3379C12.637 12.3379 15.3468 10.4361 17.1407 6.65526C17.2864 6.34871 17.2864 5.99295 17.1407 5.68072ZM9 10.9754C5.9477 10.9754 3.71288 9.4275 2.13658 6.16894C3.71288 2.91038 5.9477 1.36246 9 1.36246C12.0523 1.36246 14.2871 2.91038 15.8634 6.16894C14.289 9.4275 12.0542 10.9754 9 10.9754ZM8.9243 2.83847C7.08498 2.83847 5.59383 4.32961 5.59383 6.16894C5.59383 8.00826 7.08498 9.4994 8.9243 9.4994C10.7636 9.4994 12.2548 8.00826 12.2548 6.16894C12.2548 4.32961 10.7636 2.83847 8.9243 2.83847ZM8.9243 8.28832C7.75296 8.28832 6.80491 7.34028 6.80491 6.16894C6.80491 4.99759 7.75296 4.04955 8.9243 4.04955C10.0956 4.04955 11.0437 4.99759 11.0437 6.16894C11.0437 7.34028 10.0956 8.28832 8.9243 8.28832Z" fill="black" fill-opacity="0.45"/>
</svg>
